<svg id="US_UK_Download_on_the" data-name="US UK Download on the" xmlns="http://www.w3.org/2000/svg" viewBox="0 0 135 40"><defs><style>.cls-1{fill:#fff;}</style></defs><title>App Store</title><path d="M134,35.27a3.83,3.83,0,0,1-3.83,3.83H4.73A3.83,3.83,0,0,1,.89,35.27V4.72A3.84,3.84,0,0,1,4.73.89H130.2A3.83,3.83,0,0,1,134,4.72V35.27Z"/><path class="cls-1" d="M30.13,19.78a5.8,5.8,0,0,1,2.76-4.86,5.93,5.93,0,0,0-4.67-2.53c-2-.21-3.87,1.18-4.88,1.18s-2.57-1.16-4.23-1.12a6.23,6.23,0,0,0-5.24,3.2c-2.27,3.92-.58,9.69,1.6,12.86,1.09,1.55,2.36,3.29,4,3.23s2.23-1,4.19-1,2.51,1,4.21,1,2.84-1.56,3.89-3.13a12.85,12.85,0,0,0,1.78-3.62,5.6,5.6,0,0,1-3.42-5.15Zm-3.2-9.48a5.71,5.71,0,0,0,1.31-4.09,5.82,5.82,0,0,0-3.76,1.94,5.43,5.43,0,0,0-1.34,3.94,4.81,4.81,0,0,0,3.79-1.79Z"/><path class="cls-1" d="M53.65,31.5H51.38l-1.24-3.91H45.81L44.62,31.5H42.41L46.69,18.2h2.65L53.65,31.5ZM49.76,26l-1.12-3.47Q48.45,21.95,48,20h0q-.2.85-.63,2.51L46.18,26h3.57Zm14.91.63a5.45,5.45,0,0,1-1.32,3.87,3.87,3.87,0,0,1-2.94,1.26,2.94,2.94,0,0,1-2.72-1.36h0v5.05H55.5V25.07q0-1.54-.08-3.16H57.3l.12,1.52h0a3.79,3.79,0,0,1,6.07-.38,5.29,5.29,0,0,1,1.14,3.53Zm-2.17.08a4,4,0,0,0-.63-2.31A2.18,2.18,0,0,0,60,23.41a2.21,2.21,0,0,0-1.43.52,2.41,2.41,0,0,0-.84,1.37,2.8,2.8,0,0,0-.1.65v1.6a2.56,2.56,0,0,0,.64,1.77,2.13,2.13,0,0,0,1.67.72,2.18,2.18,0,0,0,1.88-.93A4.09,4.09,0,0,0,62.49,26.67Zm13.21-.08a5.45,5.45,0,0,1-1.32,3.87,3.87,3.87,0,0,1-2.94,1.26,2.94,2.94,0,0,1-2.72-1.36h0v5.05H66.54V25.07q0-1.54-.08-3.16h1.88l.12,1.52h0a3.79,3.79,0,0,1,6.07-.38,5.3,5.3,0,0,1,1.13,3.53Zm-2.17.08a3.94,3.94,0,0,0-.63-2.31A2.18,2.18,0,0,0,71,23.41a2.22,2.22,0,0,0-1.43.52,2.43,2.43,0,0,0-.84,1.37,2.8,2.8,0,0,0-.1.65v1.6a2.57,2.57,0,0,0,.64,1.77A2.13,2.13,0,0,0,71,30a2.18,2.18,0,0,0,1.88-.93,4.09,4.09,0,0,0,.67-2.45ZM88,27.77a3.55,3.55,0,0,1-1.18,2.76,5.24,5.24,0,0,1-3.62,1.17,6.35,6.35,0,0,1-3.45-.83l.5-1.78a5.84,5.84,0,0,0,3.08.85,2.91,2.91,0,0,0,1.88-.54,1.77,1.77,0,0,0,.67-1.45,1.85,1.85,0,0,0-.55-1.36,5.14,5.14,0,0,0-1.84-1Q80,24.25,80,21.74A3.38,3.38,0,0,1,81.25,19a4.83,4.83,0,0,1,3.26-1,6.46,6.46,0,0,1,3,.63L87,20.37a5.25,5.25,0,0,0-2.55-.61,2.58,2.58,0,0,0-1.76.55,1.58,1.58,0,0,0-.53,1.2,1.63,1.63,0,0,0,.61,1.3,6.91,6.91,0,0,0,1.94,1,6.56,6.56,0,0,1,2.53,1.62A3.38,3.38,0,0,1,88,27.78Zm7-4.26H92.74v4.66q0,1.78,1.24,1.78a3.75,3.75,0,0,0,.95-.1L95,31.46a4.83,4.83,0,0,1-1.66.24,2.56,2.56,0,0,1-2-.77,3.78,3.78,0,0,1-.71-2.59V23.51h-1.4v-1.6h1.4V20.15l2.09-.63v2.39h2.35v1.6Zm10.6,3.12a5.26,5.26,0,0,1-1.26,3.63,4.51,4.51,0,0,1-3.52,1.46,4.29,4.29,0,0,1-3.36-1.4,5.1,5.1,0,0,1-1.25-3.53,5.21,5.21,0,0,1,1.29-3.65,4.47,4.47,0,0,1,3.48-1.42,4.38,4.38,0,0,1,3.39,1.4,5,5,0,0,1,1.23,3.51Zm-2.21.07a4.32,4.32,0,0,0-.57-2.28A2.11,2.11,0,0,0,101,23.27a2.14,2.14,0,0,0-2,1.15,4.39,4.39,0,0,0-.57,2.32A4.32,4.32,0,0,0,99,29a2.18,2.18,0,0,0,3.85,0,4.33,4.33,0,0,0,.59-2.3Zm9.14-2.91a3.59,3.59,0,0,0-.67-.06,2,2,0,0,0-1.74.85,3.2,3.2,0,0,0-.53,1.9v5h-2.13l0-6.57q0-1.66-.08-3h1.86l.08,1.84h.06a3.28,3.28,0,0,1,1.07-1.52,2.58,2.58,0,0,1,1.54-.51,3.42,3.42,0,0,1,.53,0v2Zm9.54,2.47a5,5,0,0,1-.08,1h-6.4a2.78,2.78,0,0,0,.93,2.17,3.17,3.17,0,0,0,2.09.67,7.08,7.08,0,0,0,2.59-.45l.33,1.48a8,8,0,0,1-3.22.59,4.66,4.66,0,0,1-3.51-1.31,4.86,4.86,0,0,1-1.27-3.52,5.5,5.5,0,0,1,1.19-3.61,4.09,4.09,0,0,1,3.36-1.54,3.57,3.57,0,0,1,3.14,1.54,5.19,5.19,0,0,1,.85,3Zm-2-.55a2.9,2.9,0,0,0-.41-1.64,1.87,1.87,0,0,0-1.7-.89,2,2,0,0,0-1.7.87,3.17,3.17,0,0,0-.63,1.66h4.44Z"/><path class="cls-1" d="M49,10A3.28,3.28,0,0,1,48,12.67a4.2,4.2,0,0,1-2.78.82,12.93,12.93,0,0,1-1.53-.08V7a11.31,11.31,0,0,1,1.81-.14,3.89,3.89,0,0,1,2.59.75A3,3,0,0,1,49,10Zm-1.1,0a2.39,2.39,0,0,0-.61-1.76,2.39,2.39,0,0,0-1.77-.61,4.37,4.37,0,0,0-.84.07v4.89a5.49,5.49,0,0,0,.71,0A2.48,2.48,0,0,0,47.29,12,2.67,2.67,0,0,0,47.94,10Zm7,1a2.58,2.58,0,0,1-.62,1.78,2.21,2.21,0,0,1-1.73.72,2.11,2.11,0,0,1-1.65-.69,2.51,2.51,0,0,1-.62-1.73,2.55,2.55,0,0,1,.63-1.79,2.21,2.21,0,0,1,1.71-.7,2.16,2.16,0,0,1,1.67.69,2.49,2.49,0,0,1,.6,1.73Zm-1.09,0A2.14,2.14,0,0,0,53.54,10a1,1,0,0,0-.94-.56,1.05,1.05,0,0,0-1,.56,2.16,2.16,0,0,0-.28,1.14,2.14,2.14,0,0,0,.28,1.12,1.06,1.06,0,0,0,1,.56,1,1,0,0,0,.94-.57,2.12,2.12,0,0,0,.29-1.13Zm8.94-2.35-1.47,4.71h-1l-.61-2a15.06,15.06,0,0,1-.38-1.52h0a11,11,0,0,1-.38,1.52l-.65,2h-1L55.94,8.72H57L57.55,11c.13.53.24,1,.32,1.51h0q.12-.59.39-1.5l.67-2.25h.85l.64,2.2q.23.81.38,1.55h0a14.58,14.58,0,0,1,.32-1.55l.57-2.2h1Zm5.43,4.71h-1v-2.7q0-1.25-.95-1.25a1,1,0,0,0-.76.34,1.22,1.22,0,0,0-.29.81v2.8H64.1V10.07c0-.41,0-.86,0-1.35H65l.05.74h0a1.5,1.5,0,0,1,.54-.57,1.78,1.78,0,0,1,.95-.26,1.5,1.5,0,0,1,1.1.43,2.08,2.08,0,0,1,.54,1.56v2.82Zm2.89,0H70V6.56h1ZM77.26,11a2.59,2.59,0,0,1-.62,1.78,2.22,2.22,0,0,1-1.73.72,2.1,2.1,0,0,1-1.65-.69,2.51,2.51,0,0,1-.61-1.73,2.56,2.56,0,0,1,.64-1.79A2.2,2.2,0,0,1,75,8.62a2.16,2.16,0,0,1,1.67.69,2.49,2.49,0,0,1,.6,1.73Zm-1.09,0A2.14,2.14,0,0,0,75.89,10,1,1,0,0,0,75,9.39,1,1,0,0,0,74,10a2.14,2.14,0,0,0-.28,1.14A2.15,2.15,0,0,0,74,12.21a1.06,1.06,0,0,0,1,.56,1,1,0,0,0,.94-.57,2.13,2.13,0,0,0,.29-1.13Zm6.16,2.36h-.94l-.08-.54h0a1.61,1.61,0,0,1-1.38.65,1.42,1.42,0,0,1-1.08-.43,1.34,1.34,0,0,1-.37-1,1.47,1.47,0,0,1,.72-1.32,3.76,3.76,0,0,1,2-.44V10.3q0-.93-1-.93A2.19,2.19,0,0,0,79,9.72L78.79,9a3,3,0,0,1,1.62-.41q1.85,0,1.85,1.95v1.74a7.36,7.36,0,0,0,.07,1.12Zm-1.09-1.62v-.73q-1.73,0-1.73.95a.71.71,0,0,0,.2.55.74.74,0,0,0,.51.18,1.06,1.06,0,0,0,.64-.22.89.89,0,0,0,.36-.56,1,1,0,0,0,0-.18Zm7,1.62h-.93l-.05-.76h0a1.57,1.57,0,0,1-1.51.86,1.77,1.77,0,0,1-1.42-.67,2.6,2.6,0,0,1-.56-1.73,2.74,2.74,0,0,1,.61-1.85,1.88,1.88,0,0,1,1.46-.66,1.42,1.42,0,0,1,1.33.64h0V6.56h1v5.61c0,.46,0,.88,0,1.27Zm-1.09-2v-.79a1.46,1.46,0,0,0,0-.33,1.19,1.19,0,0,0-.38-.64,1,1,0,0,0-.7-.26,1.08,1.08,0,0,0-.92.47,2,2,0,0,0-.34,1.19,1.86,1.86,0,0,0,.32,1.14,1.08,1.08,0,0,0,.92.47,1,1,0,0,0,.83-.39,1.29,1.29,0,0,0,.3-.86Zm10-.41a2.59,2.59,0,0,1-.62,1.78,2.22,2.22,0,0,1-1.73.72,2.11,2.11,0,0,1-1.65-.69,2.51,2.51,0,0,1-.61-1.73,2.56,2.56,0,0,1,.64-1.79A2.21,2.21,0,0,1,95,8.62a2.16,2.16,0,0,1,1.67.69,2.49,2.49,0,0,1,.6,1.73Zm-1.09,0A2.14,2.14,0,0,0,95.88,10a1,1,0,0,0-.94-.56A1.05,1.05,0,0,0,94,10a2.14,2.14,0,0,0-.28,1.14A2.15,2.15,0,0,0,94,12.21a1.06,1.06,0,0,0,1,.56,1,1,0,0,0,.94-.57,2.13,2.13,0,0,0,.29-1.13Zm6.72,2.36h-1v-2.7q0-1.25-.95-1.25a.94.94,0,0,0-.76.34,1.21,1.21,0,0,0-.29.81v2.8H98.79V10.07c0-.41,0-.86,0-1.35h.92l.05.74h0a1.53,1.53,0,0,1,.54-.57,1.78,1.78,0,0,1,.95-.26,1.5,1.5,0,0,1,1.1.43,2.07,2.07,0,0,1,.54,1.56v2.82Zm7.05-3.93h-1.15v2.29c0,.58.21.87.61.87a1.79,1.79,0,0,0,.47-.05l0,.8a2.36,2.36,0,0,1-.81.12,1.26,1.26,0,0,1-1-.38,1.85,1.85,0,0,1-.35-1.27V9.5h-.69V8.72h.69V7.86l1-.31V8.72h1.15Zm5.55,3.93h-1.05V10.75q0-1.27-.95-1.27a1,1,0,0,0-1,.73,1.36,1.36,0,0,0-.05.38v2.84h-1V6.56h1V9.4h0a1.59,1.59,0,0,1,1.42-.77A1.46,1.46,0,0,1,115,9a2.14,2.14,0,0,1,.53,1.58v2.8Zm5.72-2.58a2.44,2.44,0,0,1,0,.48H118a1.38,1.38,0,0,0,.46,1.07,1.56,1.56,0,0,0,1,.33,3.47,3.47,0,0,0,1.27-.22l.16.73a4,4,0,0,1-1.58.29,2.28,2.28,0,0,1-1.72-.64,2.37,2.37,0,0,1-.63-1.73,2.7,2.7,0,0,1,.58-1.78,2,2,0,0,1,1.65-.76,1.75,1.75,0,0,1,1.54.76,2.51,2.51,0,0,1,.42,1.48Zm-1-.27a1.4,1.4,0,0,0-.2-.81.92.92,0,0,0-.83-.44,1,1,0,0,0-.83.43,1.58,1.58,0,0,0-.31.81h2.18Z"/></svg>