<svg xmlns="http://www.w3.org/2000/svg" xmlns:xlink="http://www.w3.org/1999/xlink" viewBox="2342 184 122 31"><defs><style>.a,.b{fill:none;}.a{clip-rule:evenodd;}.c,.f{fill:#fff;}.c{font-size:25px;font-family:Apercu-Medium, Apercu;font-weight:500;}.d{clip-path:url(#a);}.e{clip-path:url(#b);}</style><clipPath id="a"><path class="a" d="M12.448-9.949H15v-5.1h-2.08a1.56,1.56,0,0,1-.235-.017,1.535,1.535,0,0,1-.233.017H9.908v5.1ZM12.5-25a5.582,5.582,0,0,1,3.97,1.652,5.626,5.626,0,0,1,1.648,3.988c0,.033,0,.066,0,.1s0,.064,0,.1v.981h.977a1.5,1.5,0,0,1,.248.019l.04,0a5.6,5.6,0,0,1,3.972,1.652A5.636,5.636,0,0,1,25-12.526v2.618A9.92,9.92,0,0,1,22.109-2.9,9.84,9.84,0,0,1,15.132,0H12.5V-3.135h2.632A6.723,6.723,0,0,0,19.9-5.119a6.778,6.778,0,0,0,1.976-4.789v-2.618a2.5,2.5,0,0,0-.731-1.77,2.486,2.486,0,0,0-1.765-.735,1.541,1.541,0,0,1-.25-.019H18.118v5.142l0,.01a3.084,3.084,0,0,1-.9,2.177,3.059,3.059,0,0,1-2.178.907H9.868A3.052,3.052,0,0,1,7.69-7.721a3.084,3.084,0,0,1-.9-2.187v-5.183a3.084,3.084,0,0,1,.9-2.187,3.06,3.06,0,0,1,2.178-.907h2.58a1.579,1.579,0,0,1,.235.017,1.536,1.536,0,0,1,.233-.015H15v-.981c0-.033,0-.066,0-.1s0-.066,0-.1a2.512,2.512,0,0,0-.731-1.772,2.484,2.484,0,0,0-1.765-.734H9.868A6.727,6.727,0,0,0,5.1-19.881,6.786,6.786,0,0,0,3.12-15.091v5.183A6.786,6.786,0,0,0,5.1-5.119,6.727,6.727,0,0,0,9.868-3.135H12.5V0H9.868A9.845,9.845,0,0,1,2.889-2.9,9.918,9.918,0,0,1,0-9.909v-5.183A9.914,9.914,0,0,1,2.889-22.1,9.839,9.839,0,0,1,9.868-25Z" transform="translate(0 25)"/></clipPath><clipPath id="b"><path class="b" d="M-241,3313.211H1217.012V-89.929H-241Z" transform="translate(241.001 89.929)"/></clipPath></defs><g transform="translate(2116 103)"><text class="c" transform="translate(261 105)"><tspan x="0" y="0">bemind</tspan></text><g transform="translate(226 84)"><g class="d"><g class="e" transform="translate(-244.016 -64.989)"><path class="f" d="M-5,5.009H30.125V-30H-5Z" transform="translate(243.953 89.984)"/></g></g></g></g></svg>