<svg id="svg2" xmlns="http://www.w3.org/2000/svg" xmlns:xlink="http://www.w3.org/1999/xlink" viewBox="0 0 135.72 40.02"><defs><style>.cls-1,.cls-2{fill:#fff;}.cls-1{stroke:#fff;stroke-miterlimit:10;stroke-width:0.16px;}.cls-3{fill:url(#Sfumatura_senza_nome);}.cls-4{fill:url(#Sfumatura_senza_nome_2);}.cls-5{fill:url(#Sfumatura_senza_nome_3);}.cls-6{fill:url(#Sfumatura_senza_nome_4);}</style><linearGradient id="Sfumatura_senza_nome" x1="31.77" y1="-143.29" x2="14.99" y2="-126.51" gradientTransform="matrix(1, 0, 0, -0.99, -9.77, -110.65)" gradientUnits="userSpaceOnUse"><stop offset="0" stop-color="#00a0ff"/><stop offset="0.01" stop-color="#00a1ff"/><stop offset="0.26" stop-color="#00beff"/><stop offset="0.51" stop-color="#00d2ff"/><stop offset="0.76" stop-color="#00dfff"/><stop offset="1" stop-color="#00e3ff"/></linearGradient><linearGradient id="Sfumatura_senza_nome_2" x1="43.81" y1="-132" x2="19.61" y2="-132" gradientTransform="matrix(1, 0, 0, -0.99, -9.77, -110.65)" gradientUnits="userSpaceOnUse"><stop offset="0" stop-color="#ffe000"/><stop offset="0.41" stop-color="#ffbd00"/><stop offset="0.78" stop-color="orange"/><stop offset="1" stop-color="#ff9c00"/></linearGradient><linearGradient id="Sfumatura_senza_nome_3" x1="26.46" y1="-138.05" x2="3.7" y2="-115.29" gradientTransform="matrix(1, 0, 0, -0.99, -9.77, -110.65)" gradientUnits="userSpaceOnUse"><stop offset="0" stop-color="#ff3a44"/><stop offset="1" stop-color="#c31162"/></linearGradient><linearGradient id="Sfumatura_senza_nome_4" x1="8.93" y1="-143.48" x2="19.09" y2="-133.32" gradientTransform="matrix(1, 0, 0, -0.99, -9.77, -110.65)" gradientUnits="userSpaceOnUse"><stop offset="0" stop-color="#32a071"/><stop offset="0.07" stop-color="#2da771"/><stop offset="0.48" stop-color="#15cf74"/><stop offset="0.8" stop-color="#06e775"/><stop offset="1" stop-color="#00f076"/></linearGradient></defs><title>Tavola disegno 1</title><path id="path14" d="M130.54,39.94H5.24a5,5,0,0,1-5-5V5.27a5,5,0,0,1,5-5h125.3a5,5,0,0,1,5,5V35a5,5,0,0,1-5,5Z"/><g id="g18"><path id="path20" class="cls-1" d="M47.76,10.46a2.69,2.69,0,0,1-.74,2,3,3,0,0,1-2.21.88,3.06,3.06,0,0,1-2.21-.89,3,3,0,0,1-.91-2.22A3,3,0,0,1,42.59,8a3,3,0,0,1,2.21-.9A3.16,3.16,0,0,1,46,7.37,2.47,2.47,0,0,1,47,8l-.53.52a2,2,0,0,0-1.65-.7,2.32,2.32,0,0,0-1.64.66,2.27,2.27,0,0,0-.69,1.71,2.28,2.28,0,0,0,.69,1.72,2.33,2.33,0,0,0,1.64.66,2.3,2.3,0,0,0,1.68-.66,1.86,1.86,0,0,0,.5-1.2H44.8V10h2.91a2,2,0,0,1,0,.45Z"/></g><g id="g22"><path id="path24" class="cls-1" d="M52.38,8H49.65V9.86h2.47v.72H49.65v1.88h2.74v.73H48.87V7.25h3.51V8Z"/></g><g id="g26"><path id="path28" class="cls-1" d="M55.64,13.19h-.77V8H53.19V7.25h4.13V8H55.64Z"/></g><g id="g30"><path id="path32" class="cls-1" d="M60.31,13.19V7.25h.77v5.94h-.77Z"/></g><g id="g34"><path id="path36" class="cls-1" d="M64.51,13.19h-.77V8H62.06V7.25h4.13V8H64.51v5.21Z"/></g><g id="g38"><path id="path40" class="cls-1" d="M74,12.43a3.15,3.15,0,0,1-4.41,0,3,3,0,0,1-.89-2.2A3,3,0,0,1,69.6,8,3.14,3.14,0,0,1,74,8a3,3,0,0,1,.89,2.2,3,3,0,0,1-.88,2.2Zm-3.84-.5a2.33,2.33,0,0,0,3.26,0,2.31,2.31,0,0,0,.67-1.71,2.32,2.32,0,0,0-.67-1.71,2.33,2.33,0,0,0-3.27,0,2.31,2.31,0,0,0-.67,1.71,2.32,2.32,0,0,0,.67,1.71Z"/></g><g id="g42"><path id="path44" class="cls-1" d="M76,13.19V7.25h.94l2.92,4.62h0l0-1.14V7.25h.77v5.94h-.81L76.75,8.34h0l0,1.15v3.7H76Z"/></g><path id="path46" class="cls-2" d="M68.53,21.87a4.21,4.21,0,1,0,4.28,4.21,4.18,4.18,0,0,0-4.28-4.21Zm0,6.77a2.56,2.56,0,1,1,2.41-2.56,2.45,2.45,0,0,1-2.41,2.56Zm-9.33-6.77a4.21,4.21,0,1,0,4.28,4.21,4.17,4.17,0,0,0-4.28-4.21Zm0,6.77a2.56,2.56,0,1,1,2.4-2.56,2.45,2.45,0,0,1-2.4,2.56ZM48.09,23.16v1.79h4.33a3.7,3.7,0,0,1-1,2.25,4.47,4.47,0,0,1-3.34,1.31,4.76,4.76,0,0,1,0-9.51,4.62,4.62,0,0,1,3.26,1.28L52.62,19a6.35,6.35,0,0,0-4.54-1.8,6.68,6.68,0,0,0-6.72,6.55,6.68,6.68,0,0,0,6.72,6.55,6.09,6.09,0,0,0,4.62-1.84,6.37,6.37,0,0,0,1.47-5.3H48.09ZM93.5,24.55a4,4,0,0,0-3.65-2.68,4,4,0,0,0-4,4.21,4.15,4.15,0,0,0,4.23,4.21,4.24,4.24,0,0,0,3.55-1.87l-1.45-1a2.45,2.45,0,0,1-2.1,1.17A2.17,2.17,0,0,1,88,27.36L93.7,25l-.2-.48Zm-5.81,1.4a2.32,2.32,0,0,1,2.23-2.46,1.66,1.66,0,0,1,1.59.9l-3.81,1.56ZM83.05,30h1.87V17.65H83.05ZM80,22.8h-.06a3,3,0,0,0-2.24-.94,4.22,4.22,0,0,0,0,8.43,2.92,2.92,0,0,0,2.24-1H80v.6a2.17,2.17,0,0,1-2.28,2.48,2.37,2.37,0,0,1-2.15-1.5l-1.63.67a4.07,4.07,0,0,0,3.78,2.49c2.2,0,4.05-1.28,4.05-4.39V22.12H80Zm-2.14,5.83a2.56,2.56,0,0,1,0-5.11,2.39,2.39,0,0,1,2.28,2.57A2.37,2.37,0,0,1,77.84,28.63Zm24.44-11H97.79V30h1.87V25.34h2.61a3.85,3.85,0,1,0,0-7.69Zm.05,6H99.66V19.38h2.66a2.12,2.12,0,1,1,0,4.25Zm11.56-1.78a3.51,3.51,0,0,0-3.33,1.9l1.66.69a1.77,1.77,0,0,1,1.71-.91,1.8,1.8,0,0,1,2,1.59v.13a4.16,4.16,0,0,0-2-.48c-1.79,0-3.61,1-3.61,2.79a2.88,2.88,0,0,0,3.11,2.73,2.65,2.65,0,0,0,2.39-1.21h.06v1h1.81V25.27c0-2.2-1.66-3.42-3.81-3.42Zm-.22,6.79c-.61,0-1.46-.3-1.46-1,0-1,1.06-1.33,2-1.33a3.4,3.4,0,0,1,1.71.42,2.26,2.26,0,0,1-2.23,2Zm10.61-6.52-2.15,5.37h-.06l-2.22-5.37h-2l3.34,7.5-1.9,4.17h2l5.14-11.68h-2.08ZM107.42,30h1.87V17.65h-1.87V30Z"/><g id="g48"><path id="path64" class="cls-3" d="M10.69,7.78a2,2,0,0,0-.46,1.39V31.09a2,2,0,0,0,.46,1.39l.07.07L23.18,20.27V20L10.76,7.71l-.07.07Z"/></g><g id="g66"><path id="path78" class="cls-4" d="M27.32,24.37l-4.13-4.09V20l4.14-4.09.09.05,4.9,2.76c1.4.78,1.4,2.07,0,2.86l-4.9,2.75Z"/></g><g id="g80"><path id="path88" class="cls-5" d="M27.42,24.31l-4.24-4.19L10.69,32.48a1.65,1.65,0,0,0,2.08.06l14.64-8.22"/></g><g id="g90"><path id="path104" class="cls-6" d="M27.42,15.94,12.77,7.72a1.65,1.65,0,0,0-2.08.06l12.5,12.35Z"/></g></svg>